# xmcd
#
# Track frame offsets:
#	150
#	13658
#	24219
#	37660
#	49583
#	64519
#	74693
#	91318
#	108118
#	124749
#	134120
#	146653
#	162454
#	181214
#	196786
#	218293
#	241441
#	261270
#	272666
#	289034
#
# Disc length: 3975 seconds
#
# Revision: 0
# Processed by: cddbd v1.5.2PL0 Copyright (c) Steve Scherf et al.
# Submitted via: EasyCDDAExtractor 10.0.1.1
#
DISCID=190f8514
DTITLE=Various Artist - Yesterday once more - Everlasting Love
DYEAR=2008
DGENRE=Country
TTITLE0=Hamilton, Joe Frank and Reynolds - Fallin in love
TTITLE1=The Everly Brothers - All I have to do is dream
TTITLE2=Lynn Anderson - Rose Garden
TTITLE3=Jonathan King - Hooked on a feeling
TTITLE4=Love Affair - Everlasting love
TTITLE5=Herman Hermits - Can't you hear my heartbeats
TTITLE6=Demis Roussos - Forever and ever
TTITLE7=The Carpenters - I woun't last a day without you
TTITLE8=Engelbert Humperdinck - you belon to my heart
TTITLE9=The Shirelles - Dedicated to the one I love
TTITLE10=Connie Francis - Frankie
TTITLE11=Aretha Franklin - I say a little prayer
TTITLE12=Smokey - Lay back in the arrms of someone
TTITLE13=The Real Thing - Can't get by without you
TTITLE14=Dionne Warwick and Jonathan Butler - (There'e) Always something there t
TTITLE14=o be remind me
TTITLE15=Heartwave - Always and foerver
TTITLE16=Carole King - Some kind on wonderful
TTITLE17=Johnny Tillotson - Dream Eyes
TTITLE18=Al MArtino - A love so beautiful
TTITLE19=The Bachelors - Love me with all your heart
EXTD=
EXTT0=
EXTT1=
EXTT2=
EXTT3=
EXTT4=
EXTT5=
EXTT6=
EXTT7=
EXTT8=
EXTT9=
EXTT10=
EXTT11=
EXTT12=
EXTT13=
EXTT14=
EXTT15=
EXTT16=
EXTT17=
EXTT18=
EXTT19=
PLAYORDER=
